PathFileType	4	(X/Y/Z)	C:\Users\°ÂÌØÂü\Desktop\20210112\bx_n_5_1802-Unnamed.trc
DataRate	CameraRate	NumFrames	NumMarkers	Units	OrigDataRate	OrigDataStartFrame	OrigNumFrames
50.00	50.00	       8	0	mm	50.00	1	       523
Frame#	Time	
		

1	0.000	-659.30023	128.76030	1847.90796							-580.53815	-0.34625	1053.62927				-573.72253	0.13541	801.97833	-571.02051	218.67308	813.96497	-682.60791	274.77307	742.95093	-715.38123	254.27588	642.29517	-666.29803	208.03223	533.64636	-760.80890	259.68546	502.35248	-517.68280	-72.92346	143.59117	-548.81268	-31.14734	163.94765	-791.45557	42.78658	175.79672	-716.23389	73.52776	215.14404	-597.34375	26.26922	165.95996	-711.53925	152.75491	216.12508	-795.31628	176.88283	184.94373	-767.92023	226.04248	205.92485	-591.64105	219.35866	174.12135	-882.56006	296.11014	144.61603	-556.23969	257.02237	164.65434	-661.23846	298.21234	157.46190	-624.68585	306.74109	158.52074	-528.16821	304.10495	146.35884	-670.93243	-64.68279	1538.52661				-751.59857	-41.41095	489.17392	-756.21954	-16.25889	207.72290	-875.85522	-78.73365	141.22168	-647.66998	-66.22894	871.25824	-671.33984	-56.65844	756.16547	-680.67664	146.69537	577.11401	-695.98071	-29.71745	614.22150	-705.86469	-27.73695	568.10315	-674.32690	171.51421	157.25987	-608.03418	-74.08321	159.41774	-649.36597	-66.35287	163.06841	-587.26318	248.66650	1064.47351	-671.81329	290.47546	871.09259	-685.70648	79.64658	572.26154	-718.51270	249.65149	576.35339	-658.41724	22.95677	516.69574	-672.23468	55.38335	155.66939	-698.34045	298.14825	1525.04980	-586.52167	116.38821	1352.74207	-784.93713	102.12039	1052.74768	
2	0.020	-659.16919	128.68845	1847.91357							-580.36334	-0.31611	1053.68652				-573.57660	-0.11941	802.19501	-570.98407	218.53381	813.79950	-682.53784	274.28589	742.59821	-715.26105	254.27779	642.22437	-666.33759	207.92178	533.52051	-760.78467	259.73950	502.28735	-517.66278	-72.84787	143.48207	-548.74121	-31.32202	164.23831	-791.36621	42.75413	175.69116	-716.24139	73.66637	214.93803	-597.08704	26.03836	166.23894	-711.56628	152.83116	216.13535	-795.32544	176.83286	184.88208	-767.87640	226.11386	205.88222	-591.71460	219.46823	174.11238	-882.57355	295.99719	144.45621	-556.12976	256.88318	164.70529	-660.97992	298.20163	157.78397	-624.61914	306.65652	158.36246	-528.23962	304.12503	146.30989	-670.86658	-64.74845	1538.55322				-751.67920	-41.53499	489.31833	-756.28296	-16.35266	207.69681	-876.04541	-78.65211	141.11194	-647.75049	-66.37527	871.17523	-671.24524	-57.11049	756.26935	-680.80286	146.57285	577.35724	-695.94330	-29.81274	614.07733	-705.83313	-27.69596	567.87305	-674.30304	171.51503	157.08389	-608.17706	-73.87277	159.22508	-649.27039	-66.44630	163.13139	-587.35638	248.52382	1064.46179	-671.87024	290.35257	871.33362	-685.26025	79.38741	572.14368	-718.44904	249.71385	576.23212	-658.56171	22.84595	516.57050	-671.59766	55.92199	156.24985	-698.17908	298.23932	1525.11743	-586.19147	116.29553	1352.63147	-784.82623	102.15955	1052.87292	
3	0.040	-658.99677	128.66798	1847.87952							-580.38837	-0.33013	1053.47388				-573.57660	-0.11941	802.19501	-570.86523	218.43211	813.80511	-682.48560	274.52737	742.79852	-715.37854	254.11954	642.15863	-665.90015	207.99890	534.00568	-760.81256	259.59586	502.56277	-517.66895	-73.00115	143.65862	-548.69360	-31.21236	164.05699	-791.35229	42.82245	175.80423	-716.08557	73.45955	214.92686	-597.34015	26.21609	165.98949	-711.35223	152.58893	216.09636	-795.17181	176.62875	184.75552	-767.78455	226.05925	205.76640	-591.68915	219.54451	174.15054	-882.63568	296.12158	144.50882	-556.15320	256.98050	164.79149	-661.06580	298.35138	157.52872	-624.50397	306.93356	158.66266	-528.31232	303.94855	146.23056	-670.58881	-64.99903	1538.64270				-751.63281	-41.41152	489.22522	-756.25763	-16.17804	207.71248	-875.85522	-78.73365	141.22168	-647.60870	-66.32507	871.33673	-671.19849	-57.17829	756.26141	-680.80286	146.57285	577.35724	-695.94330	-29.81274	614.07733	-705.82050	-27.99059	568.20544	-674.08685	171.20142	157.47923	-608.13287	-74.01504	159.31000	-649.33685	-66.36795	163.20526	-587.27466	248.44315	1064.62988	-671.83588	290.19797	871.16425	-685.28448	79.29866	572.33716	-718.37750	249.54865	576.29584	-658.56171	22.84595	516.57050	-671.51367	56.12012	156.03217	-698.13538	298.01367	1525.29492	-585.92450	116.00507	1352.75122	-784.62079	101.89645	1052.68359	
4	0.060	-658.69464	128.83577	1847.97290							-580.40283	-0.60510	1053.45679				-573.76007	-0.58264	802.07446	-571.05878	218.16722	813.63177	-682.38074	273.75043	742.27594	-715.24066	254.16414	642.24371	-666.32385	207.73134	533.48669	-760.87207	259.49805	502.30600	-517.66895	-73.00115	143.65862	-548.63489	-31.34549	164.22249	-791.52826	42.80487	175.77446	-716.15106	73.90376	214.83278	-597.22180	26.23349	166.27228	-711.29480	152.75288	215.86569	-795.24927	176.84631	184.67639	-767.87964	225.98877	205.76703	-591.65289	219.43393	174.16322	-882.58575	296.13757	144.56622	-556.12640	256.92053	164.69539	-660.99738	298.25943	157.82028	-624.54230	306.70346	158.37640	-528.23907	304.05109	146.34192	-670.37738	-65.03866	1538.77515				-751.67920	-41.53499	489.31833	-756.21954	-16.25889	207.72290	-875.93073	-78.79627	141.25227	-647.63721	-66.65209	871.21680	-671.30267	-56.96756	756.25623	-680.80286	146.57285	577.35724	-695.94330	-29.81274	614.07733	-705.79828	-27.79317	567.89697	-674.46613	171.60406	157.11972	-608.12628	-73.58420	159.18291	-649.30780	-66.31942	163.02293	-587.17725	248.31444	1064.42664	-671.83588	290.19797	871.16425	-685.74231	79.39984	572.48175	-718.51483	249.36426	576.07678	-658.56171	22.84595	516.57050	-671.36963	55.84762	156.44911	-697.69940	298.01492	1525.34497	-585.74969	115.89616	1352.71301	-784.53137	101.78240	1052.79785	
5	0.080	-658.49579	128.55296	1847.89038							-580.36792	-0.80376	1053.41260				-573.50916	-0.08619	801.98383	-571.00671	218.22395	813.71161	-682.60956	273.60269	742.30237	-715.32806	254.09772	642.24475	-666.32703	207.58907	533.43951	-760.78210	259.63626	502.35239	-517.76740	-72.96657	143.47137	-548.70111	-31.32855	164.18349	-791.45557	42.78658	175.79672	-716.32654	73.52219	215.35735	-597.51807	26.14725	165.87204	-711.54559	152.60268	216.19215	-795.28204	176.83351	185.05801	-767.88977	226.03220	205.96445	-591.76666	219.44958	174.09819	-882.62158	296.14899	144.58987	-556.07898	256.91739	164.76472	-661.03101	298.24170	157.75063	-624.71436	306.83899	158.53976	-528.20758	304.25073	146.41353	-670.24255	-65.10584	1538.74438				-751.73993	-41.52992	489.17218	-756.32806	-16.18793	207.65767	-875.85034	-78.68372	141.27127	-647.54187	-66.68210	871.26282	-671.19849	-57.17829	756.26141	-680.62665	146.32484	577.27008	-696.15582	-29.88791	614.03235	-705.76227	-27.78095	567.80084	-674.16382	171.42516	157.22404	-608.17053	-73.87460	159.23320	-649.35687	-66.39659	163.17766	-587.13391	248.25078	1064.49658	-671.81732	290.12143	871.25305	-685.19165	79.14693	572.49066	-718.38843	249.29735	575.98669	-658.56171	22.84595	516.57050	-671.23279	55.91015	156.38145	-697.51141	298.02814	1525.37915	-585.70831	115.57905	1352.85266	-784.36664	101.60331	1052.69470	
6	0.100	-658.26056	128.45882	1847.89673							-580.17316	-0.93963	1053.47119				-573.73993	-0.52278	802.19086	-570.92554	218.15291	813.75989	-682.55945	273.68152	742.27228	-715.41913	253.92819	642.24780	-666.29822	207.84895	533.60022	-760.76917	259.46533	502.43640	-517.66278	-72.84787	143.48207	-548.74347	-31.31833	164.11746	-791.36621	42.75413	175.69116	-716.47162	73.06254	214.73134	-597.24908	26.33237	166.18016	-711.43518	152.61795	216.17004	-795.32867	176.81946	184.98268	-767.90802	226.05959	205.89862	-591.71460	219.46823	174.11238	-882.48578	296.13718	144.66689	-556.15247	257.08084	164.69858	-661.01575	298.20404	157.68855	-624.61914	306.65652	158.36246	-528.24188	304.07635	146.21542	-669.91895	-65.14878	1538.75989				-751.72894	-41.52051	489.07861	-756.21954	-16.25889	207.72290	-875.99542	-78.58401	141.20755	-647.47638	-66.77465	871.31958	-671.24536	-57.34574	756.30817	-680.59967	146.40080	577.45282	-696.02179	-29.80396	613.96350	-705.84045	-27.97720	567.98242	-674.22607	171.29128	157.33911	-608.30127	-73.90376	159.40773	-649.34094	-66.46220	163.17067	-587.13391	248.25078	1064.49658	-671.83832	289.91635	871.40265	-685.93439	78.96012	572.24658	-718.25110	249.48175	576.20581	-658.56171	22.84595	516.57050	-671.36963	55.84762	156.44911	-697.45123	297.92606	1525.44666	-585.56641	115.61909	1352.80505	-784.45776	101.53246	1052.78540	
7	0.120	-658.06427	128.22067	1847.86157							-580.05139	-0.93818	1053.46509				-573.68182	-0.52135	802.10052	-570.87543	218.07201	813.80548	-682.50244	273.56873	742.21661	-715.33594	254.04935	642.26587	-666.32703	207.58907	533.43951	-760.66174	259.45651	502.34958	-517.66895	-73.00115	143.65862	-548.68951	-31.31356	164.16489	-791.45557	42.78658	175.79672	-716.41553	73.74809	215.40051	-597.27020	26.04589	166.08650	-711.43518	152.61795	216.17004	-795.24817	176.62315	184.64980	-767.86554	225.91034	206.02197	-591.71460	219.46823	174.11238	-882.66003	296.11053	144.51537	-556.14661	257.06546	164.58963	-661.13818	298.13385	157.66960	-624.60901	306.78799	158.53468	-528.32452	304.15231	146.36115	-669.82843	-65.42713	1538.68469				-751.67572	-41.76360	489.23224	-756.32806	-16.18793	207.65767	-875.85034	-78.68372	141.27127	-647.41754	-66.88227	871.16864	-671.11786	-57.61305	756.26740	-680.68494	146.50746	577.12842	-695.96051	-29.88893	614.01172	-705.82050	-27.99059	568.20544	-674.29913	171.44713	157.33147	-607.89966	-73.79657	159.30536	-649.33185	-66.30959	163.05891	-587.21564	248.33145	1064.32849	-671.83832	289.91635	871.40265	-686.14703	79.11031	572.25415	-718.33624	249.30559	576.18268	-658.79163	22.60686	516.41333	-671.59766	55.92199	156.24985	-697.30170	297.77762	1525.58545	-585.43372	115.45584	1352.88245	-784.25409	101.37585	1052.84924	
8	0.140	-657.64459	128.38943	1847.95374							-579.89276	-1.18018	1053.30298				-573.58997	-0.78390	802.02405	-570.99127	217.74742	813.80695	-682.56598	273.55020	742.32220	-715.31952	253.73413	642.16174	-666.22241	207.57753	533.39691	-760.66174	259.45651	502.34958	-517.68280	-72.92346	143.59117	-548.72205	-31.34423	164.11050	-791.36621	42.75413	175.69116	-716.53839	73.13818	215.42897	-597.42902	26.14004	166.11700	-711.15631	152.40509	216.37135	-795.37952	176.97435	184.89636	-767.78491	225.80565	205.82591	-591.67609	219.52107	174.20253	-882.53021	296.19693	144.72672	-556.22174	256.99725	164.60033	-661.12659	298.25702	157.68512	-624.60901	306.78799	158.53468	-528.16870	304.17886	146.32680	-669.54266	-65.42035	1538.69434				-751.69836	-41.60080	489.13184	-756.32806	-16.18793	207.65767	-875.85522	-78.73365	141.22168	-647.40387	-67.05524	871.21509	-671.02466	-57.61030	756.15881	-680.45258	146.24185	577.49084	-695.95667	-30.06830	614.02515	-705.78247	-28.08393	568.12927	-674.46613	171.60406	157.11972	-608.10394	-73.83772	159.33450	-649.29688	-66.52063	163.20549	-586.99310	248.21350	1064.34460	-671.76270	289.81900	871.45044	-685.87109	78.78572	572.07520	-718.13586	249.02678	575.94476	-658.79163	22.60686	516.41333	-672.14606	55.53146	155.48459	-697.05182	297.61789	1525.42566	-585.15881	115.26582	1352.83899	-784.28442	101.21173	1053.07373	
